# xmcd CD database file
#
# Track frame offsets:
#	150
#	18685
#	40075
#	58675
#
# Disc length: 1065 seconds
#
# Revision: 0
# Processed by: cddbd v1.5PL3 Copyright (c) Steve Scherf et al.
# Submitted via: CDex 1.50beta8
#
DISCID=2e042704
DTITLE=反町隆史 - POISON 〜言いたいことも言えないこんな世の中は〜
DYEAR=1998
DGENRE=
TTITLE0=POISON 〜言いたいことも言えないこんな世の中は〜
TTITLE1=If you love me, don't Forget me.
TTITLE2=POISON 〜言いたいことも言えないこんな世の中は〜 (instrumental)
TTITLE3=If you love me, don't Forget me. （instrumental)
EXTD=YEAR: 1998
EXTT0=
EXTT1=
EXTT2=
EXTT3=
PLAYORDER=
